<svg width="177" height="50" viewBox="0 0 177 50" fill="none" xmlns="http://www.w3.org/2000/svg">
<path d="M175.859 7.33017L174.089 7.44936H172.288L170.487 7.56855L168.686 7.77713H154.879L153.078 7.83672L151.277 7.92612L149.506 8.1347L147.705 8.1049L145.904 8.19429L144.103 8.25389L142.302 8.37308H140.501L138.701 8.52206L136.9 8.49227L135.099 8.52206L133.328 8.64125L122.522 8.73065L120.721 8.79024L118.92 8.84984L117.12 8.82004L115.319 8.87963L113.518 8.90943L111.717 8.96903L109.916 9.08821L108.115 9.02862L106.314 9.11801L104.513 9.08821L102.712 9.17761L100.941 9.14781L99.1404 9.2968L97.3395 9.2074L95.5386 9.267L93.7377 9.32659H91.9367L90.1358 9.2074L88.3349 9.2372L86.534 9.267L84.7331 9.32659L82.9322 9.267L81.1312 9.2074L79.3303 9.17761L77.5294 9.2372H75.7285L73.9276 9.267L72.1267 9.17761L70.3258 9.08821L68.5248 9.11801H66.7239L64.953 9.08821L63.1521 8.90943L61.3512 8.99882L59.5503 8.87963L57.7494 8.84984L55.9484 8.76044L54.1475 8.70085L52.3466 8.67105H50.5457L48.7448 8.52206L46.9439 8.55186L45.173 8.46247L43.3721 8.37308L41.5711 8.31348L39.7702 8.19429L37.9693 8.1347H36.1684L34.3675 8.04531L32.5666 7.98571L9.75496 7.83672L7.95404 7.68774H6.18314L4.38223 7.59835L2.58131 7.47916L0.780397 7.38976L0.660336 9.56497L0.510259 11.7402L0.450229 13.9154L0.360183 16.0906L0.270137 18.2956L0.0900458 20.4708L0.0300153 22.646L2.10107 22.7056L4.14211 22.8546L6.24317 22.9738L4.65237 23.3314L3.12159 23.8081L1.56079 24.0465L0.0300153 24.4637L0.180092 26.2813L0.210107 28.0989L2.19111 28.6949L0.0900458 29.0823L0 31.1979L0.0300153 33.3433L0.0600305 35.4887L1.95099 35.9654L3.87197 36.323L1.95099 36.6508L0 36.8594L0.0900458 39.0644L0.330168 41.2396L0.390198 43.4148L0.510259 45.59L0.690351 47.795L0.750381 50L2.58131 49.851L4.38223 49.7318L6.18314 49.702L7.98406 49.6126L21.7911 49.5828L23.592 49.4935L25.3629 49.3445L27.1638 49.2551L28.9647 49.2253L30.7656 49.1061L32.5666 49.1657L34.3675 49.1061L36.1684 49.0465L37.9693 48.9273H39.7702L41.5411 48.7485L43.342 48.7187L45.1429 48.6591L46.9439 48.6293H48.7448L50.5457 48.5995L52.3466 48.5101L54.1475 48.5399L55.9484 48.3909L57.7193 48.3612L68.5549 48.4207L70.3258 48.2718L72.1267 48.3612L73.9276 48.3016H75.7285L77.5294 48.2122L79.3303 48.3016L81.1312 48.2718L82.9322 48.1526H84.7331L86.534 48.1824H88.3349L90.1358 48.2122H91.9367L93.7377 48.1526L95.5386 48.2718L97.3695 48.242L99.1704 48.2122L100.971 48.3016L102.772 48.242L104.573 48.3909L106.374 48.4207L108.175 48.4505L109.976 48.4207L111.777 48.5101H113.578H115.409L117.21 48.5399L119.011 48.5697L120.811 48.6591L122.612 48.7783L124.413 48.7485L126.214 48.7783L128.015 48.8379L135.819 48.8677L137.62 49.0465L139.421 49.0763L141.222 49.1061L143.023 49.1955L144.824 49.2849L146.625 49.3445L148.425 49.4637H150.256L152.057 49.5531L168.866 49.6126L170.667 49.6424L172.468 49.7318L174.269 49.8808L176.1 49.9702L176.22 47.8546L176.34 45.739L176.58 43.6234L176.64 41.478L176.82 39.3624L177 37.2765L175.109 36.5614L176.85 35.9059L176.94 33.8498L175.139 33.7306L173.368 33.5519L171.597 33.5221L169.826 33.3433L168.115 33.1645H169.826L171.597 33.0453L173.368 32.8963L175.139 32.8665H176.94L176.91 30.8105V28.7843V26.7283V24.702L176.88 22.6758L175.319 22.5864L173.728 22.4076L172.168 22.2885L173.728 22.0203L175.349 21.9309L177 21.7521L176.73 19.6663L176.7 17.6103L176.46 15.5542L176.37 13.4982L176.13 11.4422L176.07 9.38619L175.859 7.33017Z" fill="#5E4103"/>
<path d="M78.1297 39.6901C75.6985 39.6901 73.5974 38.8558 71.8565 37.1275C70.1156 35.4291 69.2452 33.3731 69.2452 30.9297V21.0071C69.2452 20.7092 69.3652 20.5006 69.5753 20.292C69.7855 20.0834 70.0856 20.0238 70.3858 20.0238H73.7175C74.0176 20.0238 74.1977 20.0834 74.4378 20.292C74.6779 20.5006 74.6779 20.7092 74.6779 21.0071V30.9595C74.6779 31.8534 75.0681 32.6281 75.7285 33.2837C76.3888 33.9094 77.1992 34.2372 78.0997 34.2372C79.0001 34.2074 79.7505 33.8796 80.3508 33.2539C80.9812 32.6281 81.2513 31.8534 81.2513 30.9595V21.0071C81.2513 20.7092 81.4014 20.5006 81.6415 20.292C81.8516 20.0834 82.1518 20.0238 82.4519 20.0238H85.7836C86.0837 20.0238 86.2638 20.0834 86.474 20.292C86.6841 20.5006 86.6841 20.7092 86.6841 21.0071V30.8701C86.6841 33.2837 85.9337 35.3695 84.2228 37.0977C82.5119 38.826 80.5609 39.6901 78.1297 39.6901Z" fill="#FAB900"/>
<path d="M116.969 20.0238C117.27 20.0238 117.51 20.0834 117.72 20.292C117.93 20.5006 118.02 20.7092 118.02 21.0071V38.6174C118.02 38.9154 117.93 39.1538 117.72 39.3921C117.51 39.6007 117.27 39.6901 116.969 39.6901H113.638C113.338 39.6901 113.007 39.6007 112.767 39.3921C112.557 39.1835 112.377 38.9154 112.377 38.6174V21.0071C112.377 20.7092 112.557 20.5006 112.767 20.292C112.977 20.0834 113.338 20.0238 113.638 20.0238H116.969Z" fill="#FAB900"/>
<path d="M129.036 39.6901C128.735 39.6901 128.465 39.6007 128.255 39.3921C128.045 39.1835 127.925 38.9154 127.925 38.6174V25.6853C127.925 25.5066 127.835 25.4172 127.655 25.4172H122.943C122.642 25.4172 122.372 25.298 122.132 25.0894C121.922 24.8808 121.802 24.6126 121.802 24.3147V21.0071C121.802 20.7092 121.922 20.5006 122.132 20.292C122.342 20.0834 122.642 20.0238 122.943 20.0238H138.46C138.761 20.0238 138.971 20.0834 139.211 20.292C139.451 20.5006 139.481 20.7092 139.481 21.0071V24.3147C139.481 24.6126 139.421 24.8808 139.211 25.0894C139.001 25.298 138.791 25.4172 138.46 25.4172H133.748C133.568 25.4172 133.358 25.5066 133.358 25.6853V38.6174C133.358 38.9154 133.298 39.1538 133.088 39.3921C132.878 39.6007 132.667 39.6901 132.367 39.6901H129.036Z" fill="#FAB900"/>
<path d="M152.027 39.9881C149.206 39.9881 146.775 39.0048 144.794 37.0083C142.783 35.0119 141.792 32.6281 141.792 29.8272C141.792 27.0262 142.783 24.6126 144.794 22.646C146.805 20.6496 149.206 19.6663 152.027 19.6663C154.849 19.6663 157.28 20.6496 159.261 22.646C161.272 24.6424 162.263 27.0262 162.263 29.8272C162.263 32.6281 161.272 35.0417 159.261 37.0083C157.28 38.975 154.849 39.9881 152.027 39.9881ZM152.027 25.2682C150.767 25.2682 149.686 25.7151 148.816 26.5793C147.915 27.4732 147.495 28.5459 147.495 29.7676C147.495 30.9893 147.945 32.0918 148.816 32.9559C149.716 33.8498 150.797 34.267 152.027 34.267C153.258 34.267 154.369 33.82 155.239 32.9559C156.139 32.062 156.56 30.9893 156.56 29.7676C156.56 28.5459 156.109 27.4434 155.239 26.5793C154.369 25.7151 153.288 25.2682 152.027 25.2682Z" fill="#FAB900"/>
<path d="M53.5472 38.6174C53.5472 38.9154 53.4872 39.1538 53.2771 39.3921C53.067 39.6007 52.8569 39.6901 52.5567 39.6901H49.225C48.9249 39.6901 48.6247 39.6007 48.4146 39.3921C48.2045 39.1835 48.0544 38.9154 48.0544 38.6174V21.0071C48.0544 20.7092 48.2045 20.5006 48.4146 20.292C48.6247 20.0834 48.9249 20.0238 49.225 20.0238H52.5267C52.8269 20.0238 53.007 20.0834 53.2171 20.292C53.4272 20.5006 53.4272 20.7092 53.4272 21.0071V26.0727C53.4272 26.1919 53.5772 26.2813 53.6973 26.3111C53.8174 26.3707 53.9674 26.3409 54.0575 26.2515L59.3102 20.3218C59.5203 20.0834 59.8204 20.0238 60.1506 20.0238H64.6529C65.1331 20.0238 65.4633 20.1728 65.6434 20.6198C65.8535 21.0667 65.7634 21.4243 65.4333 21.7819L58.6798 29.3504C58.5898 29.4398 58.5598 29.559 58.6498 29.6782L58.6798 29.7378L65.9135 37.8725C66.2437 38.23 66.3037 38.6174 66.1236 39.0644C65.9135 39.5113 65.5833 39.7199 65.1331 39.7199H60.6308C60.3007 39.7199 60.0305 39.6007 59.8204 39.3623L54.1175 32.8367C54.0275 32.7473 53.8474 32.7175 53.7273 32.7771C53.6073 32.8069 53.4572 32.8963 53.4572 33.0155V38.081L53.5472 38.6174Z" fill="#FAB900"/>
<path d="M96.379 38.6174C96.379 38.9154 96.289 39.1538 96.0788 39.3921C95.8687 39.6007 95.6286 39.6901 95.3285 39.6901H91.9968C91.6966 39.6901 91.3364 39.6007 91.1263 39.3921C90.9162 39.1835 90.7061 38.9154 90.7061 38.6174V21.0071C90.7061 20.7092 90.9162 20.5006 91.1263 20.292C91.3364 20.0834 91.7266 20.0238 91.9968 20.0238H95.3285C95.6286 20.0238 95.8387 20.0834 96.0788 20.292C96.319 20.5006 96.349 20.7092 96.349 21.0071V26.0727C96.349 26.1919 96.439 26.2813 96.5591 26.3111C96.6792 26.3707 96.7992 26.3409 96.8893 26.2515L102.112 20.3218C102.322 20.0834 102.622 20.0238 102.952 20.0238H107.455C107.935 20.0238 108.265 20.1728 108.445 20.6198C108.655 21.0667 108.565 21.4243 108.235 21.7819L101.482 29.3504C101.392 29.4398 101.362 29.559 101.452 29.6782L101.482 29.7378L108.715 37.8725C109.045 38.23 109.105 38.6174 108.925 39.0644C108.715 39.5113 108.385 39.7199 107.935 39.7199H103.433C103.102 39.7199 102.832 39.6007 102.622 39.3623L96.9193 32.8367C96.8292 32.7473 96.6792 32.7175 96.5591 32.7771C96.439 32.8069 96.349 32.8963 96.349 33.0155V38.081L96.379 38.6174Z" fill="#FAB900"/>
<path d="M36.9488 30.2741C36.9488 30.1847 36.9488 30.0954 36.9488 30.006C36.9488 29.857 36.3785 24.4041 32.6566 21.6329C29.7152 19.4279 25.1528 18.5042 25.7231 14.8391C25.9332 13.4684 26.8037 12.7533 27.7642 12.4255C28.0043 10.6377 28.5145 9.59476 28.6946 9.20739C28.7547 9.0584 28.6646 8.99881 28.4845 8.99881C28.2744 8.99881 28.0943 9.02861 27.8542 9.0584C23.592 9.47557 20.2603 13.4386 20.1103 17.6698C20.0502 19.1597 20.4705 20.888 21.2509 22.2288C21.3409 22.4076 21.461 22.5566 21.551 22.7056C22.2113 23.2718 22.6916 23.8975 22.9617 24.4041C23.6521 25.596 24.0123 26.758 23.9222 28.1883C23.8622 29.4994 23.6221 30.6019 23.562 30.6019C23.502 30.6019 23.4119 29.6484 22.7216 27.7414C22.0312 25.8343 19.8101 23.2122 18.0692 22.2288C17.1087 21.6925 15.9382 21.1561 14.8276 21.037C14.7676 21.037 14.6775 21.0072 14.6175 21.0072H14.5875V21.037V21.0667C14.5574 21.1263 14.5574 21.2157 14.6175 21.2455L14.8576 21.4839L14.8876 21.5137C15.5179 22.1693 15.9682 23.0632 16.1483 23.9571C16.4484 25.3278 15.7881 27.2944 15.548 28.7843H15.578C15.4579 28.7843 15.3979 29.7378 15.3979 30.4529C15.3979 34.9821 18.2193 38.7962 22.2414 40.3755C22.4815 40.4648 22.7516 40.5244 23.0217 40.584C26.4735 41.4184 29.9853 39.3027 30.8257 35.876C30.9758 35.3099 31.0358 34.7438 31.0058 34.2074C31.0058 34.2074 32.2064 36.0846 32.0263 37.6341C31.9363 38.3492 31.7562 38.9452 31.456 39.4517C31.336 39.6305 31.306 39.7497 31.6361 39.6007C34.7877 37.6341 36.9488 34.2074 36.9488 30.2741Z" fill="#FAB900"/>
<path d="M25.693 14.8391C25.1227 18.4744 29.6851 19.3981 32.6266 21.6329C36.3485 24.4338 36.9187 29.8868 36.9187 30.006C36.9187 23.0632 33.6171 20.143 29.9552 17.6102C27.7041 16.031 28.6946 13.1704 30.4054 12.5447C30.5255 12.5149 30.4955 12.3659 30.3754 12.3361C29.9852 12.2169 28.7546 12.0381 27.674 12.4255C26.7736 12.7533 25.9031 13.4684 25.693 14.8391Z" fill="#FCD163"/>
<path d="M14.5874 20.9476C14.6474 20.9476 14.7375 20.9773 14.7975 20.9773C15.878 21.0667 17.0787 21.6329 18.0391 22.1394C19.78 23.093 22.0012 25.7151 22.6915 27.652C23.3819 29.559 23.5019 30.5125 23.5319 30.5423C23.592 30.5423 23.8321 29.4696 23.8921 28.1585C23.9822 26.7282 23.622 25.5661 22.9316 24.3743C22.6615 23.8677 22.1812 23.2419 21.5209 22.6758C20.6805 21.9607 19.5699 21.2753 18.1292 20.9773C17.1387 20.7688 15.9981 20.6794 15.0676 20.8582H15.0076L14.6774 20.9476C14.6174 20.9476 14.5874 20.9178 14.5874 20.9476C14.5574 20.9773 14.5574 20.9476 14.5574 20.9476H14.5874Z" fill="#FCD163"/>
<path d="M18.4894 12.5745C18.4894 12.5745 18.5794 12.2467 18.7295 11.7402C19.0297 10.7569 19.5999 9.1776 20.3803 8.0453C21.3108 6.70442 21.9111 6.04887 24.2223 4.43981C24.7326 4.08225 25.4829 3.75447 26.2333 3.39691C26.8636 3.06914 27.494 2.74136 28.0342 2.2944C28.2143 2.14542 28.3644 1.99643 28.5145 1.84744C28.6345 1.69846 28.7546 1.57927 28.8447 1.43028C29.2949 0.774737 29.535 0.0596003 29.535 0.0596003C29.475 5.52833e-06 29.3549 5.52833e-06 29.2949 0.0893977C29.2949 0.0893977 28.9047 0.566156 27.9442 1.04291C26.5035 1.75805 24.6725 1.69846 22.4514 3.4863C21.641 4.14184 20.7105 5.06556 19.78 7.15138C18.5794 9.86294 18.3693 12.3659 18.3693 12.3659C18.3693 12.4553 18.3993 12.5447 18.4894 12.5745Z" fill="#FAB900"/>
<path d="M28.4845 1.84744C28.3344 1.99643 28.1843 2.14542 28.0042 2.2944C27.4639 2.71157 26.8336 3.06914 26.2033 3.39691C25.4229 3.78427 24.6725 4.11204 24.1923 4.43981C21.8811 6.07867 21.2808 6.73421 20.3503 8.0453C19.5699 9.1478 18.9996 10.7569 18.6995 11.7402C18.5494 12.2467 18.4594 12.5745 18.4594 12.5745C18.5194 12.6043 18.6094 12.6043 18.6695 12.5149L21.0106 9.89273C22.9016 7.74732 25.9332 6.79381 27.1638 5.87009C28.2743 5.03576 28.6946 4.43981 29.1148 3.30751C29.565 2.11562 29.535 0.208588 29.535 0.208588V0.17879C29.535 0.119196 29.505 0.0893982 29.475 0.0596008C29.475 0.0596008 29.2348 0.774738 28.7846 1.43028C28.7246 1.57927 28.6045 1.72825 28.4845 1.84744Z" fill="#FCD163"/>
</svg>
